Homoneta-Italic.ufo
<glyph name="zero" format="2">
	<advance width="451"/>
	<unicode hex="0030"/>
	<outline>
		<contour>
			<point x="285" y="451" type="curve" smooth="yes"/>
			<point x="189" y="451"/>
			<point x="90" y="369"/>
			<point x="58" y="247" type="curve" smooth="yes"/>
			<point x="27" y="122"/>
			<point x="83" y="-10"/>
			<point x="188" y="-10" type="curve" smooth="yes"/>
			<point x="284" y="-10"/>
			<point x="380" y="72"/>
			<point x="412" y="194" type="curve" smooth="yes"/>
			<point x="445" y="318"/>
			<point x="390" y="451"/>
		</contour>
		<contour>
			<point x="331" y="204" type="curve" smooth="yes"/>
			<point x="306" y="97"/>
			<point x="253" y="12"/>
			<point x="185" y="12" type="curve" smooth="yes"/>
			<point x="137" y="12"/>
			<point x="112" y="119"/>
			<point x="139" y="237" type="curve" smooth="yes"/>
			<point x="165" y="344"/>
			<point x="217" y="429"/>
			<point x="285" y="429" type="curve" smooth="yes"/>
			<point x="341" y="429"/>
			<point x="356" y="302"/>
		</contour>
	</outline>
</glyph>
<glyph name="one" format="2">
	<advance width="298"/>
	<unicode hex="0031"/>
	<outline>
		<contour>
			<point x="40" y="0" type="line"/>
			<point x="244" y="0" type="line"/>
			<point x="244" y="32" type="line"/>
			<point x="194" y="32" type="line"/>
			<point x="175" y="64" type="line"/>
			<point x="248" y="442" type="line"/>
			<point x="211" y="442" type="line"/>
			<point x="72" y="353" type="line"/>
			<point x="72" y="329" type="line"/>
			<point x="145" y="373" type="line"/>
			<point x="167" y="344" type="line"/>
			<point x="113" y="64" type="line"/>
			<point x="94" y="32" type="line"/>
			<point x="40" y="32" type="line"/>
		</contour>
	</outline>
</glyph>
<glyph name="two" format="2">
	<advance width="416"/>
	<unicode hex="0032"/>
	<outline>
		<contour>
			<point x="340" y="250" type="curve" smooth="yes"/>
			<point x="375" y="280"/>
			<point x="398" y="348"/>
			<point x="369" y="392" type="curve" smooth="yes"/>
			<point x="349" y="422"/>
			<point x="320" y="441"/>
			<point x="274" y="448" type="curve" smooth="yes"/>
			<point x="209" y="458"/>
			<point x="132" y="442"/>
			<point x="101" y="378" type="curve" smooth="yes"/>
			<point x="85" y="345"/>
			<point x="96" y="297"/>
			<point x="127" y="292" type="curve" smooth="yes"/>
			<point x="158" y="287"/>
			<point x="191" y="311"/>
			<point x="176" y="360" type="curve" smooth="yes"/>
			<point x="165" y="397"/>
			<point x="215" y="427"/>
			<point x="263" y="422" type="curve" smooth="yes"/>
			<point x="304" y="418"/>
			<point x="322" y="393"/>
			<point x="320" y="362" type="curve" smooth="yes"/>
			<point x="317" y="324"/>
			<point x="291" y="277"/>
			<point x="254" y="246" type="curve" smooth="yes"/>
			<point x="103" y="119"/>
			<point x="75" y="106"/>
			<point x="30" y="1" type="curve"/>
			<point x="361" y="1" type="line"/>
			<point x="386" y="117" type="line"/>
			<point x="346" y="117" type="line"/>
			<point x="328" y="37" type="line"/>
			<point x="118" y="37" type="line"/>
			<point x="163" y="106"/>
			<point x="183" y="107"/>
		</contour>
	</outline>
</glyph>
<glyph name="eight" format="2">
	<advance width="426"/>
	<unicode hex="0038"/>
	<outline>
		<contour>
			<point x="278" y="330" type="curve"/>
			<point x="305" y="344"/>
			<point x="382" y="371"/>
			<point x="402" y="459" type="curve" smooth="yes"/>
			<point x="417" y="526"/>
			<point x="393" y="611"/>
			<point x="284" y="611" type="curve" smooth="yes"/>
			<point x="194" y="611"/>
			<point x="123" y="559"/>
			<point x="110" y="479" type="curve" smooth="yes"/>
			<point x="98" y="403"/>
			<point x="122" y="352"/>
			<point x="173" y="317" type="curve"/>
			<point x="128" y="289"/>
			<point x="53" y="266"/>
			<point x="33" y="157" type="curve" smooth="yes"/>
			<point x="16" y="85"/>
			<point x="64" y="-10"/>
			<point x="164" y="-10" type="curve" smooth="yes"/>
			<point x="284" y="-10"/>
			<point x="336" y="45"/>
			<point x="359" y="137" type="curve" smooth="yes"/>
			<point x="370" y="182"/>
			<point x="367" y="252"/>
		</contour>
		<contour>
			<point x="284" y="586" type="curve" smooth="yes"/>
			<point x="343" y="586"/>
			<point x="374" y="527"/>
			<point x="356" y="459" type="curve" smooth="yes"/>
			<point x="336" y="381"/>
			<point x="273" y="367"/>
			<point x="242" y="350" type="curve"/>
			<point x="201" y="383"/>
			<point x="176" y="422"/>
			<point x="180" y="479" type="curve" smooth="yes"/>
			<point x="186" y="559"/>
			<point x="241" y="586"/>
		</contour>
		<contour>
			<point x="279" y="57"/>
			<point x="223" y="13"/>
			<point x="164" y="15" type="curve" smooth="yes"/>
			<point x="111" y="17"/>
			<point x="60" y="87"/>
			<point x="83" y="157" type="curve" smooth="yes"/>
			<point x="103" y="235"/>
			<point x="170" y="270"/>
			<point x="211" y="293" type="curve"/>
			<point x="282" y="238"/>
			<point x="292" y="185"/>
			<point x="287" y="137" type="curve" smooth="yes"/>
		</contour>
	</outline>
</glyph>
<glyph name="I" format="2">
	<advance width="279"/>
	<unicode hex="0049"/>
	<outline>
		<contour>
			<point x="128" y="50" type="line"/>
			<point x="249" y="600" type="line"/>
			<point x="170" y="600" type="line"/>
			<point x="45" y="28" type="line"/>
			<point x="-20" y="28" type="line"/>
			<point x="-20" y="0" type="line"/>
			<point x="195" y="0" type="line"/>
			<point x="195" y="28" type="line"/>
			<point x="147" y="28" type="line"/>
		</contour>
	</outline>
</glyph>
<glyph name="j" format="2">
	<advance width="223"/>
	<unicode hex="006A"/>
	<outline>
		<contour>
			<point x="206" y="440" type="line"/>
			<point x="135" y="439" type="line"/>
			<point x="28" y="-106" type="line"/>
			<point x="17" y="-109" type="line"/>
			<point x="-19" y="-16" type="line"/>
			<point x="-50" y="-4" type="line"/>
			<point x="-15" y="-103" type="line" smooth="yes"/>
			<point x="1" y="-149"/>
			<point x="8" y="-167"/>
			<point x="26" y="-174" type="curve" smooth="yes"/>
			<point x="69" y="-191"/>
			<point x="89" y="-153"/>
			<point x="98" y="-96" type="curve"/>
		</contour>
		<component base="uni0307" xOffset="81"/>
	</outline>
</glyph>
<glyph name="OE" format="2">
	<advance width="837"/>
	<unicode hex="0152"/>
	<outline>
		<contour>
			<point x="693" y="28" type="line"/>
			<point x="334" y="28" type="line"/>
			<point x="209" y="-10" type="line"/>
			<point x="731" y="-10" type="line"/>
			<point x="753" y="95" type="line"/>
			<point x="725" y="95" type="line"/>
			<point x="715" y="47" type="line"/>
		</contour>
		<contour>
			<point x="434" y="572" type="line"/>
			<point x="620" y="572" type="line"/>
			<point x="767" y="572" type="line"/>
			<point x="789" y="553" type="line"/>
			<point x="798" y="507" type="line"/>
			<point x="826" y="507" type="line"/>
			<point x="847" y="610" type="line"/>
			<point x="372" y="610" type="line"/>
		</contour>
		<contour>
			<point x="452" y="252" type="line"/>
			<point x="530" y="244" type="line"/>
			<point x="535" y="269" type="line"/>
			<point x="564" y="291" type="line"/>
			<point x="723" y="291" type="line"/>
			<point x="745" y="272" type="line"/>
			<point x="745" y="242" type="line"/>
			<point x="773" y="242" type="line"/>
			<point x="800" y="374" type="line"/>
			<point x="772" y="374" type="line"/>
			<point x="763" y="346" type="line"/>
			<point x="741" y="327" type="line"/>
			<point x="572" y="327" type="line"/>
			<point x="553" y="349" type="line"/>
			<point x="558" y="375" type="line"/>
			<point x="479" y="384" type="line"/>
		</contour>
		<component base="O"/>
	</outline>
</glyph>
<glyph name="uni0302" format="2">
	<advance width="322"/>
	<unicode hex="0302"/>
	<outline>
		<contour>
			<point x="15" y="501" type="line"/>
			<point x="33" y="501" type="line"/>
			<point x="153" y="571" type="line"/>
			<point x="177" y="571" type="line"/>
			<point x="289" y="501" type="line"/>
			<point x="307" y="501" type="line"/>
			<point x="177" y="639" type="line"/>
			<point x="153" y="639" type="line"/>
		</contour>
	</outline>
</glyph>
<glyph name="uni0308" format="2">
	<advance width="317"/>
	<unicode hex="0308"/>
	<outline>
		<contour>
			<point x="249" y="549" type="curve" smooth="yes"/>
			<point x="278" y="549"/>
			<point x="302" y="573"/>
			<point x="302" y="603" type="curve" smooth="yes"/>
			<point x="302" y="631"/>
			<point x="278" y="656"/>
			<point x="249" y="656" type="curve" smooth="yes"/>
			<point x="220" y="656"/>
			<point x="195" y="631"/>
			<point x="195" y="603" type="curve" smooth="yes"/>
			<point x="195" y="573"/>
			<point x="220" y="549"/>
		</contour>
		<contour>
			<point x="69" y="549" type="curve" smooth="yes"/>
			<point x="98" y="549"/>
			<point x="122" y="573"/>
			<point x="122" y="603" type="curve" smooth="yes"/>
			<point x="122" y="631"/>
			<point x="98" y="656"/>
			<point x="69" y="656" type="curve" smooth="yes"/>
			<point x="40" y="656"/>
			<point x="15" y="631"/>
			<point x="15" y="603" type="curve" smooth="yes"/>
			<point x="15" y="573"/>
			<point x="40" y="549"/>
		</contour>
	</outline>
</glyph>
<glyph name="endash" format="2">
	<advance width="596"/>
	<unicode hex="2013"/>
	<outline>
		<contour>
			<point x="50" y="197" type="line"/>
			<point x="546" y="197" type="line"/>
			<point x="546" y="232" type="line"/>
			<point x="50" y="232" type="line"/>
		</contour>
	</outline>
</glyph>
<glyph name="emdash" format="2">
	<advance width="786"/>
	<unicode hex="2014"/>
	<outline>
		<contour>
			<point x="50" y="199" type="line"/>
			<point x="736" y="199" type="line"/>
			<point x="736" y="234" type="line"/>
			<point x="50" y="234" type="line"/>
		</contour>
	</outline>
</glyph>
<glyph name="fraction" format="2">
	<advance width="572"/>
	<unicode hex="2044"/>
	<outline>
		<contour>
			<point x="70" y="1" type="line"/>
			<point x="115" y="1" type="line"/>
			<point x="502" y="601" type="line"/>
			<point x="457" y="601" type="line"/>
		</contour>
	</outline>
</glyph>
<glyph name="uF2520" format="2">
	<advance width="1246"/>
	<unicode hex="F2520"/>
	<outline>
		<contour>
			<point x="350" y="45" type="line"/>
			<point x="342" y="53" type="line"/>
			<point x="393" y="293" type="line" smooth="yes"/>
			<point x="409" y="370"/>
			<point x="374" y="450"/>
			<point x="274" y="450" type="curve" smooth="yes"/>
			<point x="212" y="450"/>
			<point x="178" y="407"/>
			<point x="160" y="378" type="curve"/>
			<point x="160" y="381"/>
			<point x="161" y="384"/>
			<point x="161" y="387" type="curve"/>
			<point x="162" y="393" type="line"/>
			<point x="172" y="440" type="line"/>
			<point x="189" y="541"/>
			<point x="208" y="587"/>
			<point x="252" y="579" type="curve" smooth="yes"/>
			<point x="269" y="576"/>
			<point x="278" y="564"/>
			<point x="281" y="542" type="curve"/>
			<point x="280" y="521"/>
			<point x="285" y="511"/>
			<point x="292" y="503" type="curve" smooth="yes"/>
			<point x="307" y="486"/>
			<point x="332" y="481"/>
			<point x="352" y="495" type="curve" smooth="yes"/>
			<point x="374" y="510"/>
			<point x="377" y="547"/>
			<point x="356" y="576" type="curve" smooth="yes"/>
			<point x="338" y="600"/>
			<point x="304" y="608"/>
			<point x="255" y="610" type="curve" smooth="yes"/>
			<point x="175" y="614"/>
			<point x="121" y="537"/>
			<point x="102" y="440" type="curve"/>
			<point x="32" y="440" type="line"/>
			<point x="32" y="407" type="line"/>
			<point x="77" y="407" type="line"/>
			<point x="93" y="394" type="line"/>
			<point x="81" y="330" type="line"/>
			<point x="80" y="329" type="line"/>
			<point x="15" y="0" type="line"/>
			<point x="85" y="0" type="line"/>
			<point x="112" y="138" type="line"/>
			<point x="148" y="315" type="line"/>
			<point x="172" y="362"/>
			<point x="212" y="408"/>
			<point x="248" y="411" type="curve"/>
			<point x="303" y="411"/>
			<point x="330" y="355"/>
			<point x="314" y="264" type="curve" smooth="yes"/>
			<point x="279" y="90" type="line" smooth="yes"/>
			<point x="266" y="33"/>
			<point x="270" y="-10"/>
			<point x="316" y="-10" type="curve" smooth="yes"/>
			<point x="334" y="-10"/>
			<point x="347" y="5"/>
			<point x="380" y="39" type="curve" smooth="yes"/>
			<point x="454" y="117" type="line"/>
			<point x="418" y="117" type="line"/>
		</contour>
		<contour>
			<point x="1246" y="291" type="line"/>
			<point x="1209" y="291" type="line"/>
			<point x="1200" y="379"/>
			<point x="1145" y="451"/>
			<point x="1052" y="451" type="curve" smooth="yes"/>
			<point x="980" y="451"/>
			<point x="918" y="419"/>
			<point x="874" y="368" type="curve"/>
			<point x="848" y="417"/>
			<point x="802" y="451"/>
			<point x="739" y="451" type="curve" smooth="yes"/>
			<point x="688" y="451"/>
			<point x="640" y="435"/>
			<point x="600" y="406" type="curve" smooth="yes"/>
			<point x="550" y="370"/>
			<point x="513" y="315"/>
			<point x="495" y="247" type="curve" smooth="yes"/>
			<point x="462" y="123"/>
			<point x="520" y="-10"/>
			<point x="645" y="-10" type="curve" smooth="yes"/>
			<point x="761" y="-10"/>
			<point x="856" y="72"/>
			<point x="889" y="194" type="curve" smooth="yes"/>
			<point x="895" y="216"/>
			<point x="898" y="238"/>
			<point x="898" y="260" type="curve"/>
			<point x="1246" y="259" type="line"/>
		</contour>
		<contour>
			<point x="804" y="204" type="curve"/>
			<point x="779" y="97"/>
			<point x="740" y="12"/>
			<point x="652" y="12" type="curve" smooth="yes"/>
			<point x="584" y="12"/>
			<point x="554" y="119"/>
			<point x="580" y="237" type="curve" smooth="yes"/>
			<point x="591" y="287"/>
			<point x="606" y="332"/>
			<point x="628" y="366" type="curve" smooth="yes"/>
			<point x="653" y="404"/>
			<point x="685" y="429"/>
			<point x="732" y="429" type="curve" smooth="yes"/>
			<point x="794" y="429"/>
			<point x="817" y="345"/>
			<point x="813" y="260" type="curve" smooth="yes"/>
			<point x="812" y="241"/>
			<point x="809" y="222"/>
		</contour>
		<contour>
			<point x="908" y="291" type="line"/>
			<point x="932" y="365"/>
			<point x="971" y="429"/>
			<point x="1045" y="429" type="curve" smooth="yes"/>
			<point x="1096" y="429"/>
			<point x="1126" y="370"/>
			<point x="1127" y="291" type="curve"/>
		</contour>
	</outline>
</glyph>
<glyph name="uF2620" format="2">
	<advance width="571"/>
	<unicode hex="F2620"/>
	<outline>
		<contour>
			<point x="403" y="105" type="line"/>
			<point x="393" y="57" type="line"/>
			<point x="371" y="38" type="line"/>
			<point x="197" y="38" type="line"/>
			<point x="168" y="60" type="line"/>
			<point x="216" y="289" type="line"/>
			<point x="245" y="311" type="line"/>
			<point x="404" y="311" type="line"/>
			<point x="426" y="292" type="line"/>
			<point x="426" y="262" type="line"/>
			<point x="454" y="262" type="line"/>
			<point x="481" y="394" type="line"/>
			<point x="453" y="394" type="line"/>
			<point x="444" y="366" type="line"/>
			<point x="422" y="347" type="line"/>
			<point x="253" y="347" type="line"/>
			<point x="234" y="369" type="line"/>
			<point x="269" y="540" type="line"/>
			<point x="298" y="562" type="line"/>
			<point x="445" y="562" type="line"/>
			<point x="467" y="543" type="line"/>
			<point x="476" y="497" type="line"/>
			<point x="504" y="497" type="line"/>
			<point x="525" y="600" type="line"/>
			<point x="200" y="600" type="line"/>
			<point x="82" y="28" type="line"/>
			<point x="17" y="28" type="line"/>
			<point x="17" y="0" type="line"/>
			<point x="409" y="0" type="line"/>
			<point x="431" y="105" type="line"/>
		</contour>
		<contour>
			<point x="543" y="-75" type="line"/>
			<point x="543" y="-123" type="line"/>
			<point x="521" y="-142" type="line"/>
			<point x="151" y="-142" type="line"/>
			<point x="132" y="-120" type="line"/>
			<point x="242" y="420" type="line"/>
			<point x="163" y="420" type="line"/>
			<point x="43" y="-152" type="line"/>
			<point x="-20" y="-152" type="line"/>
			<point x="-20" y="-180" type="line"/>
			<point x="571" y="-180" type="line"/>
			<point x="571" y="-75" type="line"/>
		</contour>
		<component base="uni0307" xOffset="142" yOffset="130"/>
	</outline>
</glyph>
<glyph name="uF2720" format="2">
	<advance width="651"/>
	<unicode hex="F2720"/>
	<outline>
		<contour>
			<point x="124" y="260" type="line"/>
			<point x="650" y="259" type="line"/>
			<point x="651" y="291" type="line"/>
			<point x="113" y="291" type="line"/>
			<point x="144" y="440" type="line"/>
			<point x="74" y="440" type="line"/>
			<point x="34" y="251"/>
			<point x="33" y="248"/>
			<point x="33" y="247" type="curve"/>
			<point x="2" y="122"/>
			<point x="58" y="-10"/>
			<point x="183" y="-10" type="curve" smooth="yes"/>
			<point x="251" y="-10"/>
			<point x="311" y="18"/>
			<point x="365" y="129" type="curve"/>
			<point x="325" y="129" type="line"/>
			<point x="294" y="72"/>
			<point x="253" y="16"/>
			<point x="190" y="16" type="curve" smooth="yes"/>
			<point x="122" y="16"/>
			<point x="91" y="119"/>
			<point x="118" y="237" type="curve" smooth="yes"/>
		</contour>
		<contour>
			<point x="478" y="291" type="line"/>
			<point x="364" y="291" type="line"/>
			<point x="356" y="299" type="line"/>
			<point x="408" y="511" type="line" smooth="yes"/>
			<point x="422" y="567"/>
			<point x="417" y="611"/>
			<point x="371" y="611" type="curve" smooth="yes"/>
			<point x="353" y="611"/>
			<point x="339" y="597"/>
			<point x="307" y="562" type="curve" smooth="yes"/>
			<point x="235" y="484" type="line"/>
			<point x="269" y="484" type="line"/>
			<point x="337" y="556" type="line"/>
			<point x="345" y="548" type="line"/>
			<point x="333" y="490" type="line"/>
			<point x="294" y="352" type="line" smooth="yes"/>
			<point x="278" y="296"/>
			<point x="285" y="261"/>
			<point x="331" y="261" type="curve"/>
			<point x="467" y="261" type="line"/>
		</contour>
		<contour>
			<point x="638" y="291" type="line"/>
			<point x="574" y="291" type="line"/>
			<point x="566" y="299" type="line"/>
			<point x="618" y="511" type="line" smooth="yes"/>
			<point x="632" y="567"/>
			<point x="627" y="611"/>
			<point x="581" y="611" type="curve" smooth="yes"/>
			<point x="563" y="611"/>
			<point x="549" y="597"/>
			<point x="517" y="562" type="curve" smooth="yes"/>
			<point x="445" y="484" type="line"/>
			<point x="479" y="484" type="line"/>
			<point x="547" y="556" type="line"/>
			<point x="555" y="548" type="line"/>
			<point x="543" y="490" type="line"/>
			<point x="504" y="352" type="line" smooth="yes"/>
			<point x="488" y="296"/>
			<point x="495" y="261"/>
			<point x="541" y="261" type="curve"/>
			<point x="627" y="261" type="line"/>
		</contour>
		<component base="uni0307" xOffset="21"/>
	</outline>
</glyph>
<glyph name="uF3360" format="2">
	<advance width="1193"/>
	<unicode hex="F3360"/>
	<outline>
		<contour>
			<point x="1126" y="117" type="line"/>
			<point x="1058" y="45" type="line"/>
			<point x="1050" y="53" type="line"/>
			<point x="1127" y="440" type="line"/>
			<point x="1058" y="440" type="line"/>
			<point x="994" y="125" type="line"/>
			<point x="970" y="78"/>
			<point x="930" y="32"/>
			<point x="894" y="29" type="curve"/>
			<point x="839" y="29"/>
			<point x="810" y="85"/>
			<point x="828" y="176" type="curve" smooth="yes"/>
			<point x="845" y="260" type="line"/>
			<point x="845" y="264" type="line"/>
			<point x="847" y="272" type="line"/>
			<point x="846" y="272" type="line"/>
			<point x="848" y="291" type="line"/>
			<point x="839" y="379"/>
			<point x="784" y="451"/>
			<point x="691" y="451" type="curve" smooth="yes"/>
			<point x="586" y="451"/>
			<point x="503" y="382"/>
			<point x="463" y="288" type="curve"/>
			<point x="363" y="288" type="line"/>
			<point x="345" y="305" type="line"/>
			<point x="370" y="427" type="line"/>
			<point x="380" y="476" type="line"/>
			<point x="382" y="487" type="line"/>
			<point x="388" y="511" type="line" smooth="yes"/>
			<point x="402" y="568"/>
			<point x="397" y="611"/>
			<point x="351" y="611" type="curve" smooth="yes"/>
			<point x="333" y="611"/>
			<point x="319" y="597"/>
			<point x="287" y="562" type="curve" smooth="yes"/>
			<point x="215" y="484" type="line"/>
			<point x="249" y="484" type="line"/>
			<point x="317" y="556" type="line"/>
			<point x="325" y="548" type="line"/>
			<point x="313" y="490" type="line"/>
			<point x="300" y="428" type="line"/>
			<point x="288" y="368" type="line"/>
			<point x="287" y="364" type="line"/>
			<point x="286" y="359" type="line" smooth="yes"/>
			<point x="275" y="302"/>
			<point x="276" y="260"/>
			<point x="322" y="260" type="curve" smooth="yes"/>
			<point x="773" y="260" type="line"/>
			<point x="749" y="147" type="line" smooth="yes"/>
			<point x="733" y="70"/>
			<point x="768" y="-10"/>
			<point x="868" y="-10" type="curve" smooth="yes"/>
			<point x="930" y="-10"/>
			<point x="964" y="33"/>
			<point x="982" y="62" type="curve"/>
			<point x="977" y="19"/>
			<point x="986" y="-10"/>
			<point x="1024" y="-10" type="curve" smooth="yes"/>
			<point x="1042" y="-10"/>
			<point x="1056" y="4"/>
			<point x="1088" y="39" type="curve" smooth="yes"/>
			<point x="1160" y="117" type="line"/>
		</contour>
		<contour>
			<point x="545" y="291" type="line"/>
			<point x="569" y="365"/>
			<point x="608" y="429"/>
			<point x="682" y="429" type="curve" smooth="yes"/>
			<point x="733" y="429"/>
			<point x="762" y="371"/>
			<point x="764" y="291" type="curve"/>
		</contour>
		<component base="uni0307" xOffset="1006"/>
		<component base="l"/>
	</outline>
</glyph>
<glyph name="uF4B10" format="2">
	<advance width="1177"/>
	<unicode hex="F4B10"/>
	<outline>
		<contour>
			<point x="41" y="323" type="line"/>
			<point x="109" y="395" type="line"/>
			<point x="117" y="387" type="line"/>
			<point x="66" y="147" type="line" smooth="yes"/>
			<point x="50" y="70"/>
			<point x="85" y="-10"/>
			<point x="185" y="-10" type="curve" smooth="yes"/>
			<point x="247" y="-10"/>
			<point x="281" y="33"/>
			<point x="299" y="62" type="curve"/>
			<point x="294" y="19"/>
			<point x="303" y="-10"/>
			<point x="341" y="-10" type="curve" smooth="yes"/>
			<point x="359" y="-10"/>
			<point x="373" y="4"/>
			<point x="405" y="39" type="curve" smooth="yes"/>
			<point x="477" y="117" type="line"/>
			<point x="443" y="117" type="line"/>
			<point x="375" y="45" type="line"/>
			<point x="367" y="53" type="line"/>
			<point x="393" y="185" type="line"/>
			<point x="397" y="197" type="line" smooth="yes"/>
			<point x="425" y="282"/>
			<point x="494" y="386"/>
			<point x="511" y="386" type="curve" smooth="yes"/>
			<point x="536" y="386"/>
			<point x="549" y="355"/>
			<point x="581" y="355" type="curve" smooth="yes"/>
			<point x="604" y="355"/>
			<point x="623" y="374"/>
			<point x="623" y="397" type="curve" smooth="yes"/>
			<point x="623" y="425"/>
			<point x="597" y="450"/>
			<point x="562" y="450" type="curve" smooth="yes"/>
			<point x="513" y="450"/>
			<point x="477" y="409"/>
			<point x="450" y="360" type="curve" smooth="yes"/>
			<point x="441" y="344"/>
			<point x="426" y="312"/>
			<point x="415" y="294" type="curve"/>
			<point x="444" y="440" type="line"/>
			<point x="375" y="440" type="line"/>
			<point x="311" y="125" type="line"/>
			<point x="287" y="78"/>
			<point x="247" y="32"/>
			<point x="211" y="29" type="curve"/>
			<point x="156" y="29"/>
			<point x="127" y="85"/>
			<point x="145" y="176" type="curve" smooth="yes"/>
			<point x="180" y="350" type="line" smooth="yes"/>
			<point x="191" y="407"/>
			<point x="189" y="450"/>
			<point x="143" y="450" type="curve" smooth="yes"/>
			<point x="125" y="450"/>
			<point x="112" y="435"/>
			<point x="79" y="401" type="curve" smooth="yes"/>
			<point x="5" y="323" type="line"/>
		</contour>
		<contour>
			<point x="547" y="77" type="curve" smooth="yes"/>
			<point x="518" y="-48"/>
			<point x="572" y="-180"/>
			<point x="697" y="-180" type="curve" smooth="yes"/>
			<point x="754" y="-180"/>
			<point x="805" y="-160"/>
			<point x="852" y="-89" type="curve"/>
			<point x="875" y="-149"/>
			<point x="924" y="-192"/>
			<point x="995" y="-192" type="curve" smooth="yes"/>
			<point x="1063" y="-192"/>
			<point x="1123" y="-164"/>
			<point x="1177" y="-53" type="curve"/>
			<point x="1137" y="-53" type="line"/>
			<point x="1106" y="-110"/>
			<point x="1065" y="-166"/>
			<point x="1002" y="-166" type="curve" smooth="yes"/>
			<point x="917" y="-166"/>
			<point x="900" y="-42"/>
			<point x="934" y="48" type="curve"/>
			<point x="1091" y="48" type="line"/>
			<point x="1091" y="79" type="line"/>
			<point x="859" y="79" type="line"/>
			<point x="842" y="45"/>
			<point x="832" y="-3"/>
			<point x="839" y="-41" type="curve"/>
			<point x="808" y="-98"/>
			<point x="767" y="-154"/>
			<point x="704" y="-154" type="curve" smooth="yes"/>
			<point x="636" y="-154"/>
			<point x="605" y="-51"/>
			<point x="632" y="67" type="curve" smooth="yes"/>
			<point x="659" y="182"/>
			<point x="683" y="266"/>
			<point x="774" y="260" type="curve" smooth="yes"/>
			<point x="802" y="258"/>
			<point x="828" y="231"/>
			<point x="825" y="200" type="curve"/>
			<point x="819" y="181"/>
			<point x="822" y="169"/>
			<point x="827" y="160" type="curve" smooth="yes"/>
			<point x="838" y="140"/>
			<point x="861" y="129"/>
			<point x="882" y="138" type="curve" smooth="yes"/>
			<point x="908" y="149"/>
			<point x="920" y="183"/>
			<point x="906" y="216" type="curve" smooth="yes"/>
			<point x="892" y="249"/>
			<point x="828" y="278"/>
			<point x="777" y="280" type="curve" smooth="yes"/>
			<point x="658" y="285"/>
			<point x="576" y="202"/>
		</contour>
		<contour>
			<point x="684" y="603" type="curve" smooth="yes"/>
			<point x="684" y="573"/>
			<point x="709" y="549"/>
			<point x="738" y="549" type="curve" smooth="yes"/>
			<point x="767" y="549"/>
			<point x="791" y="573"/>
			<point x="791" y="603" type="curve" smooth="yes"/>
			<point x="791" y="631"/>
			<point x="767" y="656"/>
			<point x="738" y="656" type="curve" smooth="yes"/>
			<point x="709" y="656"/>
			<point x="684" y="631"/>
		</contour>
	</outline>
</glyph>
<glyph name="E_D.liga" format="2">
	<advance width="570"/>
	<outline>
		<contour>
			<point x="109" y="247" type="line"/>
			<point x="189" y="247" type="line"/>
			<point x="198" y="289" type="line"/>
			<point x="227" y="311" type="line"/>
			<point x="326" y="311" type="line"/>
			<point x="348" y="292" type="line"/>
			<point x="348" y="262" type="line"/>
			<point x="376" y="262" type="line"/>
			<point x="403" y="394" type="line"/>
			<point x="375" y="394" type="line"/>
			<point x="366" y="366" type="line"/>
			<point x="344" y="347" type="line"/>
			<point x="235" y="347" type="line"/>
			<point x="216" y="369" type="line"/>
			<point x="228" y="428" type="line"/>
			<point x="146" y="427" type="line"/>
		</contour>
		<component base="D"/>
	</outline>
</glyph>
<glyph name="Eacute_D.liga" format="2">
	<advance width="570"/>
	<outline>
		<contour>
			<point x="315" y="662" type="line"/>
			<point x="392" y="663"/>
			<point x="437" y="696"/>
			<point x="452" y="743" type="curve" smooth="yes"/>
			<point x="466" y="786"/>
			<point x="446" y="823"/>
			<point x="416" y="833" type="curve" smooth="yes"/>
			<point x="391" y="841"/>
			<point x="367" y="828"/>
			<point x="360" y="806" type="curve" smooth="yes"/>
			<point x="352" y="782"/>
			<point x="362" y="763"/>
			<point x="384" y="757" type="curve" smooth="yes"/>
			<point x="388" y="756"/>
			<point x="393" y="756"/>
			<point x="397" y="757" type="curve" smooth="yes"/>
			<point x="408" y="760"/>
			<point x="414" y="760"/>
			<point x="417" y="759" type="curve" smooth="yes"/>
			<point x="419" y="758"/>
			<point x="420" y="757"/>
			<point x="420" y="754" type="curve" smooth="yes"/>
			<point x="420" y="750"/>
			<point x="420" y="746"/>
			<point x="420" y="742" type="curve" smooth="yes"/>
			<point x="420" y="703"/>
			<point x="370" y="679"/>
			<point x="319" y="677" type="curve"/>
		</contour>
		<component base="E_D.liga"/>
	</outline>
</glyph>
<glyph name="Eacute_E.liga" format="2">
	<advance width="662"/>
	<outline>
		<contour>
			<point x="322" y="662" type="line"/>
			<point x="399" y="663"/>
			<point x="444" y="696"/>
			<point x="459" y="743" type="curve" smooth="yes"/>
			<point x="473" y="786"/>
			<point x="453" y="823"/>
			<point x="423" y="833" type="curve" smooth="yes"/>
			<point x="398" y="841"/>
			<point x="374" y="828"/>
			<point x="367" y="806" type="curve" smooth="yes"/>
			<point x="359" y="782"/>
			<point x="369" y="763"/>
			<point x="391" y="757" type="curve" smooth="yes"/>
			<point x="395" y="756"/>
			<point x="400" y="756"/>
			<point x="404" y="757" type="curve" smooth="yes"/>
			<point x="415" y="760"/>
			<point x="421" y="760"/>
			<point x="424" y="759" type="curve" smooth="yes"/>
			<point x="426" y="758"/>
			<point x="427" y="757"/>
			<point x="427" y="754" type="curve" smooth="yes"/>
			<point x="427" y="750"/>
			<point x="427" y="746"/>
			<point x="427" y="742" type="curve" smooth="yes"/>
			<point x="427" y="703"/>
			<point x="377" y="679"/>
			<point x="326" y="677" type="curve"/>
		</contour>
		<component base="E_E.liga"/>
	</outline>
</glyph>
<glyph name="Egrave_E.liga" format="2">
	<advance width="662"/>
	<outline>
		<contour>
			<point x="441" y="662" type="curve"/>
			<point x="437" y="677" type="line"/>
			<point x="386" y="679"/>
			<point x="336" y="703"/>
			<point x="336" y="742" type="curve" smooth="yes"/>
			<point x="336" y="746"/>
			<point x="336" y="750"/>
			<point x="336" y="754" type="curve" smooth="yes"/>
			<point x="336" y="757"/>
			<point x="337" y="758"/>
			<point x="339" y="759" type="curve" smooth="yes"/>
			<point x="342" y="760"/>
			<point x="348" y="760"/>
			<point x="359" y="757" type="curve" smooth="yes"/>
			<point x="363" y="756"/>
			<point x="368" y="756"/>
			<point x="372" y="757" type="curve" smooth="yes"/>
			<point x="394" y="763"/>
			<point x="404" y="782"/>
			<point x="396" y="806" type="curve" smooth="yes"/>
			<point x="389" y="828"/>
			<point x="365" y="841"/>
			<point x="340" y="833" type="curve" smooth="yes"/>
			<point x="310" y="823"/>
			<point x="290" y="786"/>
			<point x="304" y="743" type="curve" smooth="yes"/>
			<point x="319" y="696"/>
			<point x="364" y="663"/>
		</contour>
		<component base="E_E.liga"/>
	</outline>
</glyph>
<glyph name="H_N.liga" format="2">
	<advance width="955"/>
	<outline>
		<contour>
			<point x="807" y="600" type="line"/>
			<point x="807" y="572" type="line"/>
			<point x="857" y="572" type="line"/>
			<point x="876" y="550" type="line"/>
			<point x="779" y="70" type="line"/>
			<point x="571" y="600" type="line"/>
			<point x="553" y="600" type="line"/>
			<point x="422" y="28" type="line"/>
			<point x="362" y="28" type="line"/>
			<point x="362" y="0" type="line"/>
			<point x="530" y="0" type="line"/>
			<point x="530" y="28" type="line"/>
			<point x="482" y="28" type="line"/>
			<point x="463" y="50" type="line"/>
			<point x="463" y="72" type="line"/>
			<point x="545" y="434" type="line"/>
			<point x="717" y="0" type="line"/>
			<point x="810" y="0" type="line"/>
			<point x="928" y="550" type="line"/>
			<point x="947" y="572" type="line"/>
			<point x="995" y="572" type="line"/>
			<point x="995" y="600" type="line"/>
		</contour>
		<component base="H"/>
	</outline>
</glyph>
<glyph name="N_E.liga" format="2">
	<advance width="841"/>
	<outline>
		<contour>
			<point x="729" y="105" type="line"/>
			<point x="719" y="57" type="line"/>
			<point x="697" y="38" type="line"/>
			<point x="523" y="38" type="line"/>
			<point x="494" y="60" type="line"/>
			<point x="542" y="289" type="line"/>
			<point x="571" y="311" type="line"/>
			<point x="730" y="311" type="line"/>
			<point x="752" y="292" type="line"/>
			<point x="752" y="262" type="line"/>
			<point x="780" y="262" type="line"/>
			<point x="807" y="394" type="line"/>
			<point x="779" y="394" type="line"/>
			<point x="770" y="366" type="line"/>
			<point x="748" y="347" type="line"/>
			<point x="579" y="347" type="line"/>
			<point x="560" y="369" type="line"/>
			<point x="595" y="540" type="line"/>
			<point x="624" y="562" type="line"/>
			<point x="771" y="562" type="line"/>
			<point x="793" y="543" type="line"/>
			<point x="802" y="497" type="line"/>
			<point x="830" y="497" type="line"/>
			<point x="851" y="600" type="line"/>
			<point x="546" y="599" type="line"/>
			<point x="429" y="0" type="line"/>
			<point x="735" y="0" type="line"/>
			<point x="757" y="105" type="line"/>
		</contour>
		<component base="N"/>
	</outline>
</glyph>
<glyph name="N_Eacute.liga" format="2">
	<advance width="841"/>
	<outline>
		<contour>
			<point x="629" y="662" type="line"/>
			<point x="706" y="663"/>
			<point x="751" y="696"/>
			<point x="766" y="743" type="curve" smooth="yes"/>
			<point x="780" y="786"/>
			<point x="760" y="824"/>
			<point x="730" y="833" type="curve" smooth="yes"/>
			<point x="705" y="841"/>
			<point x="681" y="828"/>
			<point x="674" y="806" type="curve" smooth="yes"/>
			<point x="666" y="782"/>
			<point x="676" y="764"/>
			<point x="698" y="757" type="curve" smooth="yes"/>
			<point x="702" y="756"/>
			<point x="707" y="756"/>
			<point x="711" y="757" type="curve" smooth="yes"/>
			<point x="722" y="759"/>
			<point x="728" y="760"/>
			<point x="731" y="759" type="curve" smooth="yes"/>
			<point x="733" y="758"/>
			<point x="734" y="757"/>
			<point x="734" y="754" type="curve" smooth="yes"/>
			<point x="735" y="750"/>
			<point x="734" y="746"/>
			<point x="734" y="742" type="curve" smooth="yes"/>
			<point x="727" y="704"/>
			<point x="684" y="679"/>
			<point x="633" y="677" type="curve"/>
		</contour>
		<component base="N_E.liga"/>
	</outline>
</glyph>
<glyph name="N_Egrave.liga" format="2">
	<advance width="841"/>
	<outline>
		<contour>
			<point x="776" y="662" type="curve"/>
			<point x="772" y="677" type="line"/>
			<point x="721" y="679"/>
			<point x="678" y="704"/>
			<point x="671" y="742" type="curve" smooth="yes"/>
			<point x="671" y="746"/>
			<point x="670" y="750"/>
			<point x="671" y="754" type="curve" smooth="yes"/>
			<point x="671" y="757"/>
			<point x="672" y="758"/>
			<point x="674" y="759" type="curve" smooth="yes"/>
			<point x="677" y="760"/>
			<point x="683" y="759"/>
			<point x="694" y="757" type="curve" smooth="yes"/>
			<point x="698" y="756"/>
			<point x="703" y="756"/>
			<point x="707" y="757" type="curve" smooth="yes"/>
			<point x="729" y="764"/>
			<point x="739" y="782"/>
			<point x="731" y="806" type="curve" smooth="yes"/>
			<point x="724" y="828"/>
			<point x="700" y="841"/>
			<point x="675" y="833" type="curve" smooth="yes"/>
			<point x="645" y="824"/>
			<point x="625" y="786"/>
			<point x="639" y="743" type="curve" smooth="yes"/>
			<point x="654" y="696"/>
			<point x="699" y="663"/>
		</contour>
		<component base="N_E.liga"/>
	</outline>
</glyph>
<glyph name="N_N.liga" format="2">
	<advance width="954"/>
	<outline>
		<contour>
			<point x="806" y="600" type="line"/>
			<point x="806" y="572" type="line"/>
			<point x="856" y="572" type="line"/>
			<point x="875" y="550" type="line"/>
			<point x="778" y="70" type="line"/>
			<point x="570" y="600" type="line"/>
			<point x="532" y="600" type="line"/>
			<point x="417" y="70" type="line"/>
			<point x="209" y="600" type="line"/>
			<point x="171" y="600" type="line"/>
			<point x="40" y="28" type="line"/>
			<point x="-20" y="28" type="line"/>
			<point x="-20" y="0" type="line"/>
			<point x="168" y="0" type="line"/>
			<point x="168" y="28" type="line"/>
			<point x="120" y="28" type="line"/>
			<point x="101" y="50" type="line"/>
			<point x="101" y="72" type="line"/>
			<point x="183" y="434" type="line"/>
			<point x="355" y="0" type="line"/>
			<point x="448" y="0" type="line"/>
			<point x="545" y="434" type="line"/>
			<point x="716" y="0" type="line"/>
			<point x="809" y="0" type="line"/>
			<point x="927" y="550" type="line"/>
			<point x="946" y="572" type="line"/>
			<point x="994" y="572" type="line"/>
			<point x="994" y="600" type="line"/>
		</contour>
	</outline>
</glyph>
<glyph name="R_S_E.dlig" format="2">
	<advance width="1128"/>
	<outline>
		<contour>
			<point x="456" y="170" type="curve" smooth="yes"/>
			<point x="388" y="217"/>
			<point x="337" y="255"/>
			<point x="343" y="320" type="curve"/>
			<point x="423" y="337"/>
			<point x="470" y="381"/>
			<point x="485" y="470" type="curve" smooth="yes"/>
			<point x="500" y="557"/>
			<point x="447" y="600"/>
			<point x="356" y="600" type="curve" smooth="yes"/>
			<point x="72" y="600" type="line"/>
			<point x="72" y="572" type="line"/>
			<point x="122" y="572" type="line"/>
			<point x="141" y="550" type="line"/>
			<point x="79" y="266" type="line"/>
			<point x="20" y="0" type="line"/>
			<point x="96" y="0" type="line"/>
			<point x="158" y="266" type="line"/>
			<point x="164" y="292" type="line"/>
			<point x="193" y="314" type="line"/>
			<point x="280" y="314" type="line"/>
			<point x="262" y="213"/>
			<point x="321" y="164"/>
			<point x="407" y="104" type="curve" smooth="yes"/>
			<point x="487" y="48"/>
			<point x="531" y="5"/>
			<point x="520" y="-62" type="curve" smooth="yes"/>
			<point x="511" y="-115"/>
			<point x="485" y="-164"/>
			<point x="417" y="-162" type="curve" smooth="yes"/>
			<point x="309" y="-159"/>
			<point x="271" y="-51"/>
			<point x="284" y="49" type="curve"/>
			<point x="253" y="49" type="line"/>
			<point x="216" y="-146" type="line"/>
			<point x="243" y="-146" type="line"/>
			<point x="248" y="-126" type="line"/>
			<point x="271" y="-127" type="line"/>
			<point x="290" y="-145"/>
			<point x="352" y="-182"/>
			<point x="399" y="-186" type="curve" smooth="yes"/>
			<point x="510" y="-195"/>
			<point x="578" y="-149"/>
			<point x="598" y="-64" type="curve" smooth="yes"/>
			<point x="618" y="23"/>
			<point x="563" y="97"/>
		</contour>
		<contour>
			<point x="199" y="345" type="line"/>
			<point x="180" y="367" type="line"/>
			<point x="219" y="550" type="line"/>
			<point x="248" y="572" type="line"/>
			<point x="323" y="572" type="line" smooth="yes"/>
			<point x="367" y="572"/>
			<point x="424" y="529"/>
			<point x="411" y="469" type="curve" smooth="yes"/>
			<point x="390" y="373"/>
			<point x="326" y="345"/>
			<point x="266" y="345" type="curve" smooth="yes"/>
		</contour>
		<component base="E" xOffset="650" yOffset="-180"/>
	</outline>
</glyph>
<glyph name="T_E.liga" format="2">
	<advance width="620"/>
	<outline>
		<contour>
			<point x="386" y="549" type="line"/>
			<point x="403" y="562" type="line"/>
			<point x="550" y="562" type="line"/>
			<point x="572" y="543" type="line"/>
			<point x="581" y="497" type="line"/>
			<point x="609" y="497" type="line"/>
			<point x="630" y="600" type="line"/>
			<point x="40" y="600" type="line"/>
			<point x="86" y="497" type="line"/>
			<point x="105" y="497" type="line"/>
			<point x="105" y="545" type="line"/>
			<point x="121" y="563" type="line"/>
			<point x="278" y="563" type="line"/>
			<point x="297" y="541" type="line"/>
			<point x="185" y="28" type="line"/>
			<point x="121" y="28" type="line"/>
			<point x="121" y="0" type="line"/>
			<point x="514" y="0" type="line"/>
			<point x="536" y="105" type="line"/>
			<point x="508" y="105" type="line"/>
			<point x="498" y="57" type="line"/>
			<point x="476" y="38" type="line"/>
			<point x="302" y="38" type="line"/>
			<point x="274" y="59" type="line"/>
			<point x="325" y="292" type="line"/>
			<point x="350" y="311" type="line"/>
			<point x="509" y="311" type="line"/>
			<point x="531" y="292" type="line"/>
			<point x="531" y="262" type="line"/>
			<point x="559" y="262" type="line"/>
			<point x="586" y="394" type="line"/>
			<point x="558" y="394" type="line"/>
			<point x="549" y="366" type="line"/>
			<point x="527" y="347" type="line"/>
			<point x="358" y="347" type="line"/>
			<point x="341" y="367" type="line"/>
			<point x="379" y="541" type="line"/>
		</contour>
	</outline>
</glyph>
<glyph name="U_E.dlig" format="2">
	<advance width="759"/>
	<outline>
		<contour>
			<point x="328" y="29" type="line"/>
			<point x="249" y="-9" type="line"/>
			<point x="693" y="-9" type="line"/>
			<point x="715" y="96" type="line"/>
			<point x="687" y="96" type="line"/>
			<point x="677" y="48" type="line"/>
			<point x="655" y="29" type="line"/>
		</contour>
		<contour>
			<point x="521" y="347" type="line"/>
			<point x="514" y="311" type="line"/>
			<point x="648" y="311" type="line"/>
			<point x="670" y="292" type="line"/>
			<point x="670" y="262" type="line"/>
			<point x="698" y="262" type="line"/>
			<point x="725" y="394" type="line"/>
			<point x="697" y="394" type="line"/>
			<point x="688" y="366" type="line"/>
			<point x="666" y="347" type="line"/>
		</contour>
		<contour>
			<point x="562" y="600" type="line"/>
			<point x="555" y="562" type="line"/>
			<point x="689" y="562" type="line"/>
			<point x="711" y="543" type="line"/>
			<point x="720" y="497" type="line"/>
			<point x="748" y="497" type="line"/>
			<point x="769" y="600" type="line"/>
		</contour>
		<component base="U"/>
	</outline>
</glyph>
<glyph name="t_t_e.alt02" format="2">
	<advance width="645"/>
	<outline>
		<contour>
			<point x="117" y="218" type="line"/>
			<point x="157" y="407" type="line"/>
			<point x="237" y="407" type="line"/>
			<point x="237" y="439" type="line"/>
			<point x="163" y="439" type="line"/>
			<point x="178" y="514" type="line"/>
			<point x="25" y="407" type="line"/>
			<point x="87" y="407" type="line"/>
			<point x="54" y="255" type="line"/>
			<point x="41" y="198"/>
			<point x="45" y="156"/>
			<point x="91" y="156" type="curve" smooth="yes"/>
			<point x="109" y="156"/>
			<point x="123" y="169"/>
			<point x="155" y="204" type="curve" smooth="yes"/>
			<point x="227" y="282" type="line"/>
			<point x="193" y="282" type="line"/>
			<point x="125" y="210" type="line"/>
		</contour>
		<component base="inclusive_e.001" xOffset="182" yOffset="147"/>
	</outline>
</glyph>
<glyph name="u_r_i_c_e_s" format="2">
	<advance width="1538"/>
	<outline>
		<contour>
			<point x="41" y="323" type="line"/>
			<point x="109" y="395" type="line"/>
			<point x="117" y="387" type="line"/>
			<point x="66" y="147" type="line" smooth="yes"/>
			<point x="50" y="70"/>
			<point x="85" y="-10"/>
			<point x="185" y="-10" type="curve" smooth="yes"/>
			<point x="247" y="-10"/>
			<point x="281" y="33"/>
			<point x="299" y="62" type="curve"/>
			<point x="294" y="19"/>
			<point x="303" y="-10"/>
			<point x="341" y="-10" type="curve" smooth="yes"/>
			<point x="359" y="-10"/>
			<point x="373" y="4"/>
			<point x="405" y="39" type="curve" smooth="yes"/>
			<point x="477" y="117" type="line"/>
			<point x="443" y="117" type="line"/>
			<point x="375" y="45" type="line"/>
			<point x="367" y="53" type="line"/>
			<point x="393" y="185" type="line"/>
			<point x="397" y="197" type="line" smooth="yes"/>
			<point x="425" y="282"/>
			<point x="494" y="386"/>
			<point x="511" y="386" type="curve" smooth="yes"/>
			<point x="536" y="386"/>
			<point x="549" y="355"/>
			<point x="581" y="355" type="curve" smooth="yes"/>
			<point x="604" y="355"/>
			<point x="623" y="374"/>
			<point x="623" y="397" type="curve" smooth="yes"/>
			<point x="623" y="425"/>
			<point x="597" y="450"/>
			<point x="562" y="450" type="curve" smooth="yes"/>
			<point x="513" y="450"/>
			<point x="477" y="409"/>
			<point x="450" y="360" type="curve" smooth="yes"/>
			<point x="441" y="344"/>
			<point x="426" y="312"/>
			<point x="415" y="294" type="curve"/>
			<point x="444" y="440" type="line"/>
			<point x="375" y="440" type="line"/>
			<point x="311" y="125" type="line"/>
			<point x="287" y="78"/>
			<point x="247" y="32"/>
			<point x="211" y="29" type="curve"/>
			<point x="156" y="29"/>
			<point x="127" y="85"/>
			<point x="145" y="176" type="curve" smooth="yes"/>
			<point x="180" y="350" type="line" smooth="yes"/>
			<point x="191" y="407"/>
			<point x="189" y="450"/>
			<point x="143" y="450" type="curve" smooth="yes"/>
			<point x="125" y="450"/>
			<point x="112" y="435"/>
			<point x="79" y="401" type="curve" smooth="yes"/>
			<point x="5" y="323" type="line"/>
		</contour>
		<contour>
			<point x="547" y="77" type="curve" smooth="yes"/>
			<point x="518" y="-48"/>
			<point x="572" y="-180"/>
			<point x="697" y="-180" type="curve" smooth="yes"/>
			<point x="754" y="-180"/>
			<point x="805" y="-160"/>
			<point x="852" y="-89" type="curve"/>
			<point x="875" y="-149"/>
			<point x="924" y="-192"/>
			<point x="995" y="-192" type="curve" smooth="yes"/>
			<point x="1063" y="-192"/>
			<point x="1123" y="-164"/>
			<point x="1177" y="-53" type="curve"/>
			<point x="1137" y="-53" type="line"/>
			<point x="1106" y="-110"/>
			<point x="1065" y="-166"/>
			<point x="1002" y="-166" type="curve" smooth="yes"/>
			<point x="917" y="-166"/>
			<point x="900" y="-42"/>
			<point x="934" y="48" type="curve"/>
			<point x="1007" y="48"/>
			<point x="1046" y="48"/>
			<point x="1277" y="48" type="curve"/>
			<point x="1325" y="3"/>
			<point x="1426" y="-34"/>
			<point x="1415" y="-101" type="curve" smooth="yes"/>
			<point x="1409" y="-140"/>
			<point x="1391" y="-165"/>
			<point x="1344" y="-164" type="curve" smooth="yes"/>
			<point x="1270" y="-162"/>
			<point x="1236" y="-93"/>
			<point x="1237" y="-19" type="curve"/>
			<point x="1209" y="-18" type="line"/>
			<point x="1197" y="-161" type="line"/>
			<point x="1222" y="-163" type="line"/>
			<point x="1223" y="-148" type="line"/>
			<point x="1240" y="-149" type="line"/>
			<point x="1283" y="-186"/>
			<point x="1322" y="-193"/>
			<point x="1340" y="-193" type="curve" smooth="yes"/>
			<point x="1442" y="-193"/>
			<point x="1499" y="-136"/>
			<point x="1490" y="-76" type="curve" smooth="yes"/>
			<point x="1481" y="-17"/>
			<point x="1461" y="-1"/>
			<point x="1394" y="53" type="curve"/>
			<point x="1463" y="63"/>
			<point x="1524" y="103"/>
			<point x="1504" y="173" type="curve" smooth="yes"/>
			<point x="1492" y="216"/>
			<point x="1438" y="239"/>
			<point x="1369" y="239" type="curve" smooth="yes"/>
			<point x="1289" y="239"/>
			<point x="1234" y="178"/>
			<point x="1241" y="120" type="curve" smooth="yes"/>
			<point x="1243" y="103"/>
			<point x="1246" y="92"/>
			<point x="1250" y="81" type="curve"/>
			<point x="997" y="80" type="line"/>
			<point x="997" y="79" type="line"/>
			<point x="859" y="79" type="line"/>
			<point x="842" y="45"/>
			<point x="832" y="-3"/>
			<point x="839" y="-41" type="curve"/>
			<point x="808" y="-98"/>
			<point x="767" y="-154"/>
			<point x="704" y="-154" type="curve" smooth="yes"/>
			<point x="636" y="-154"/>
			<point x="605" y="-51"/>
			<point x="632" y="67" type="curve" smooth="yes"/>
			<point x="659" y="182"/>
			<point x="683" y="266"/>
			<point x="774" y="260" type="curve" smooth="yes"/>
			<point x="802" y="258"/>
			<point x="828" y="231"/>
			<point x="825" y="200" type="curve"/>
			<point x="819" y="181"/>
			<point x="822" y="169"/>
			<point x="827" y="160" type="curve" smooth="yes"/>
			<point x="838" y="140"/>
			<point x="861" y="129"/>
			<point x="882" y="138" type="curve" smooth="yes"/>
			<point x="908" y="149"/>
			<point x="920" y="183"/>
			<point x="906" y="216" type="curve" smooth="yes"/>
			<point x="892" y="249"/>
			<point x="828" y="278"/>
			<point x="777" y="280" type="curve" smooth="yes"/>
			<point x="658" y="285"/>
			<point x="576" y="202"/>
		</contour>
		<contour>
			<point x="684" y="603" type="curve" smooth="yes"/>
			<point x="684" y="573"/>
			<point x="709" y="549"/>
			<point x="738" y="549" type="curve" smooth="yes"/>
			<point x="767" y="549"/>
			<point x="791" y="573"/>
			<point x="791" y="603" type="curve" smooth="yes"/>
			<point x="791" y="631"/>
			<point x="767" y="656"/>
			<point x="738" y="656" type="curve" smooth="yes"/>
			<point x="709" y="656"/>
			<point x="684" y="631"/>
		</contour>
		<contour>
			<point x="1300" y="158" type="curve" smooth="yes"/>
			<point x="1300" y="193"/>
			<point x="1342" y="222"/>
			<point x="1374" y="222" type="curve" smooth="yes"/>
			<point x="1414" y="222"/>
			<point x="1445" y="195"/>
			<point x="1451" y="159" type="curve" smooth="yes"/>
			<point x="1457" y="120"/>
			<point x="1423" y="89"/>
			<point x="1356" y="85" type="curve"/>
			<point x="1309" y="124"/>
			<point x="1300" y="135"/>
		</contour>
	</outline>
</glyph>
<glyph name="x_l_l_e" format="2">
	<advance width="905"/>
	<outline>
		<contour>
			<point x="412" y="370" type="line"/>
			<point x="483" y="370" type="line"/>
			<point x="504" y="477" type="line"/>
			<point x="506" y="488" type="line"/>
			<point x="512" y="512" type="line" smooth="yes"/>
			<point x="526" y="569"/>
			<point x="521" y="612"/>
			<point x="475" y="612" type="curve" smooth="yes"/>
			<point x="457" y="612"/>
			<point x="443" y="598"/>
			<point x="411" y="563" type="curve" smooth="yes"/>
			<point x="339" y="485" type="line"/>
			<point x="373" y="485" type="line"/>
			<point x="441" y="557" type="line"/>
			<point x="449" y="549" type="line"/>
			<point x="437" y="491" type="line"/>
		</contour>
		<contour>
			<point x="649" y="87" type="line"/>
			<point x="905" y="87" type="line"/>
			<point x="905" y="118" type="line"/>
			<point x="637" y="118" type="line"/>
			<point x="710" y="476" type="line"/>
			<point x="712" y="487" type="line"/>
			<point x="718" y="511" type="line" smooth="yes"/>
			<point x="732" y="568"/>
			<point x="727" y="611"/>
			<point x="681" y="611" type="curve" smooth="yes"/>
			<point x="663" y="611"/>
			<point x="649" y="597"/>
			<point x="617" y="562" type="curve" smooth="yes"/>
			<point x="545" y="484" type="line"/>
			<point x="579" y="484" type="line"/>
			<point x="647" y="556" type="line"/>
			<point x="655" y="548" type="line"/>
			<point x="643" y="490" type="line"/>
			<point x="558" y="74" type="line"/>
			<point x="527" y="-51"/>
			<point x="583" y="-183"/>
			<point x="708" y="-183" type="curve" smooth="yes"/>
			<point x="776" y="-183"/>
			<point x="836" y="-155"/>
			<point x="890" y="-44" type="curve"/>
			<point x="850" y="-44" type="line"/>
			<point x="819" y="-101"/>
			<point x="778" y="-157"/>
			<point x="715" y="-157" type="curve" smooth="yes"/>
			<point x="647" y="-157"/>
			<point x="612" y="-53"/>
			<point x="643" y="64" type="curve" smooth="yes"/>
		</contour>
		<component base="x"/>
	</outline>
</glyph>
<glyph name="x_l_l_e_s" format="2">
	<advance width="1166"/>
	<outline>
		<contour>
			<point x="545" y="484" type="line"/>
			<point x="579" y="484" type="line"/>
			<point x="647" y="556" type="line"/>
			<point x="655" y="548" type="line"/>
			<point x="643" y="490" type="line"/>
			<point x="558" y="74" type="line"/>
			<point x="527" y="-51"/>
			<point x="583" y="-183"/>
			<point x="708" y="-183" type="curve" smooth="yes"/>
			<point x="756" y="-183"/>
			<point x="801" y="-169"/>
			<point x="842" y="-121" type="curve"/>
			<point x="839" y="-152" type="line"/>
			<point x="863" y="-154" type="line"/>
			<point x="865" y="-123" type="line"/>
			<point x="921" y="-177"/>
			<point x="957" y="-184"/>
			<point x="974" y="-184" type="curve" smooth="yes"/>
			<point x="1061" y="-184"/>
			<point x="1124" y="-118"/>
			<point x="1115" y="-47" type="curve" smooth="yes"/>
			<point x="1108" y="12"/>
			<point x="1088" y="33"/>
			<point x="1025" y="87" type="curve" smooth="yes"/>
			<point x="949" y="151"/>
			<point x="936" y="162"/>
			<point x="936" y="190" type="curve" smooth="yes"/>
			<point x="936" y="225"/>
			<point x="976" y="254"/>
			<point x="1006" y="254" type="curve" smooth="yes"/>
			<point x="1050" y="254"/>
			<point x="1069" y="220"/>
			<point x="1057" y="192" type="curve" smooth="yes"/>
			<point x="1050" y="177"/>
			<point x="1054" y="163"/>
			<point x="1058" y="153" type="curve" smooth="yes"/>
			<point x="1066" y="131"/>
			<point x="1093" y="122"/>
			<point x="1112" y="130" type="curve" smooth="yes"/>
			<point x="1137" y="140"/>
			<point x="1142" y="174"/>
			<point x="1128" y="206" type="curve" smooth="yes"/>
			<point x="1111" y="250"/>
			<point x="1057" y="271"/>
			<point x="1001" y="273" type="curve" smooth="yes"/>
			<point x="926" y="276"/>
			<point x="874" y="212"/>
			<point x="880" y="154" type="curve" smooth="yes"/>
			<point x="887" y="95"/>
			<point x="902" y="94"/>
			<point x="972" y="31" type="curve" smooth="yes"/>
			<point x="1020" y="-13"/>
			<point x="1052" y="-42"/>
			<point x="1045" y="-92" type="curve" smooth="yes"/>
			<point x="1039" y="-131"/>
			<point x="1022" y="-156"/>
			<point x="978" y="-155" type="curve" smooth="yes"/>
			<point x="924" y="-153"/>
			<point x="877" y="-74"/>
			<point x="877" y="-10" type="curve"/>
			<point x="850" y="-9" type="line"/>
			<point x="839" y="-74"/>
			<point x="776" y="-157"/>
			<point x="715" y="-157" type="curve" smooth="yes"/>
			<point x="647" y="-157"/>
			<point x="612" y="-53"/>
			<point x="643" y="64" type="curve" smooth="yes"/>
			<point x="649" y="87" type="line"/>
			<point x="785" y="87" type="line"/>
			<point x="785" y="118" type="line"/>
			<point x="637" y="118" type="line"/>
			<point x="710" y="476" type="line"/>
			<point x="712" y="487" type="line"/>
			<point x="718" y="511" type="line" smooth="yes"/>
			<point x="732" y="568"/>
			<point x="727" y="611"/>
			<point x="681" y="611" type="curve" smooth="yes"/>
			<point x="663" y="611"/>
			<point x="649" y="597"/>
			<point x="617" y="562" type="curve" smooth="yes"/>
		</contour>
		<contour>
			<point x="20" y="-9" type="line"/>
			<point x="70" y="-6" type="line" smooth="yes"/>
			<point x="87" y="-5"/>
			<point x="100" y="-3"/>
			<point x="110" y="0" type="curve" smooth="yes"/>
			<point x="120" y="3"/>
			<point x="131" y="10"/>
			<point x="142" y="21" type="curve" smooth="yes"/>
			<point x="153" y="32"/>
			<point x="168" y="50"/>
			<point x="187" y="76" type="curve" smooth="yes"/>
			<point x="204" y="101"/>
			<point x="221" y="131"/>
			<point x="238" y="166" type="curve"/>
			<point x="286" y="59" type="line" smooth="yes"/>
			<point x="310" y="6"/>
			<point x="337" y="-27"/>
			<point x="374" y="0" type="curve" smooth="yes"/>
			<point x="388" y="10"/>
			<point x="393" y="29"/>
			<point x="398" y="76" type="curve" smooth="yes"/>
			<point x="410" y="182" type="line"/>
			<point x="383" y="162" type="line"/>
			<point x="370" y="64" type="line"/>
			<point x="359" y="66" type="line"/>
			<point x="282" y="237" type="line"/>
			<point x="306" y="274" type="line" smooth="yes"/>
			<point x="327" y="307"/>
			<point x="346" y="331"/>
			<point x="363" y="347" type="curve" smooth="yes"/>
			<point x="379" y="362"/>
			<point x="398" y="370"/>
			<point x="421" y="370" type="curve" smooth="yes"/>
			<point x="483" y="370" type="line"/>
			<point x="504" y="477" type="line"/>
			<point x="506" y="488" type="line"/>
			<point x="512" y="512" type="line" smooth="yes"/>
			<point x="526" y="569"/>
			<point x="521" y="612"/>
			<point x="475" y="612" type="curve" smooth="yes"/>
			<point x="457" y="612"/>
			<point x="443" y="598"/>
			<point x="411" y="563" type="curve" smooth="yes"/>
			<point x="339" y="485" type="line"/>
			<point x="373" y="485" type="line"/>
			<point x="441" y="557" type="line"/>
			<point x="449" y="549" type="line"/>
			<point x="426.845" y="441.819" type="line"/>
			<point x="416" y="440" type="line" smooth="yes"/>
			<point x="406" y="438"/>
			<point x="395" y="432"/>
			<point x="383" y="423" type="curve" smooth="yes"/>
			<point x="368" y="412"/>
			<point x="355" y="397"/>
			<point x="343" y="380" type="curve" smooth="yes"/>
			<point x="331" y="363"/>
			<point x="318" y="341"/>
			<point x="305" y="315" type="curve"/>
			<point x="272" y="260" type="line"/>
			<point x="217" y="382" type="line" smooth="yes"/>
			<point x="199" y="423"/>
			<point x="165" y="467"/>
			<point x="129" y="441" type="curve" smooth="yes"/>
			<point x="115" y="431"/>
			<point x="110" y="412"/>
			<point x="105" y="365" type="curve" smooth="yes"/>
			<point x="93" y="259" type="line"/>
			<point x="120" y="279" type="line"/>
			<point x="133" y="377" type="line"/>
			<point x="144" y="375" type="line"/>
			<point x="227" y="190" type="line"/>
			<point x="200" y="147"/>
			<point x="179" y="119"/>
			<point x="167" y="105" type="curve" smooth="yes"/>
			<point x="144" y="80"/>
			<point x="117" y="68"/>
			<point x="87" y="68" type="curve" smooth="yes"/>
			<point x="43" y="68" type="line"/>
		</contour>
	</outline>
</glyph>
